<?xml version="1.0" encoding="UTF-8"?>
<!-- Generator: Adobe Illustrator 19.2.1, SVG Export Plug-In . SVG Version: 6.00 Build 0)  -->
<svg xmlns="http://www.w3.org/2000/svg" xmlns:xlink="http://www.w3.org/1999/xlink" xmlns:dc="http://purl.org/dc/elements/1.1/" xmlns:cc="http://creativecommons.org/ns#" xmlns:rdf="http://www.w3.org/1999/02/22-rdf-syntax-ns#" version="1.1" id="DESIGNS" x="0px" y="0px" width="32px" height="32px" viewBox="0 0 32 32" style="enable-background:new 0 0 32 32;" xml:space="preserve">
<title property="dc:title">to battle</title><desc property="dc:description">An icon for "battle" from the Stone series on to [icon]. Downloaded from http://www.toicon.com/icons/stone_battle by 123.117.158.235 on 2021-01-29. Licensed CC-BY, see http://toicon.com/license/ for details.</desc>
<path class="stone_een" d="M30.146,28.561l-1.586,1.586c-0.292,0.292-0.676,0.438-1.061,0.438s-0.768-0.146-1.061-0.438  l-4.293-4.293l-2.232,2.232c-0.391,0.391-0.902,0.586-1.414,0.586s-1.024-0.195-1.414-0.586l-0.172-0.172  c-0.781-0.781-0.781-2.047,0-2.828l8.172-8.172c0.391-0.391,0.902-0.586,1.414-0.586s1.024,0.195,1.414,0.586l0.172,0.172  c0.781,0.781,0.781,2.047,0,2.828l-2.232,2.232l4.293,4.293C30.731,27.024,30.731,27.976,30.146,28.561z M22.341,18.244  l-4.097,4.097L3.479,13.656C2.567,13.12,2,12.128,2,11.07V3c0-0.551,0.449-1,1-1h8.07c1.058,0,2.049,0.567,2.586,1.479  L22.341,18.244z M19.354,19.354c0.195-0.195,0.195-0.512,0-0.707l-15.5-15.5c-0.195-0.195-0.512-0.195-0.707,0s-0.195,0.512,0,0.707  l15.5,15.5C18.744,19.451,18.872,19.5,19,19.5S19.256,19.451,19.354,19.354z" style="fill: #0B1719;"/>
<metadata><work rdf:about=""><format>image/svg+xml</format><type rdf:resource="http://purl.org/dc/dcmitype/StillImage"/><license rdf:resource="http://creativecommons.org/licenses/by/4.0/"/><attributionname>Shannon E Thomas</attributionname><attributionurl>http://www.toicon.com/icons/stone_battle</attributionurl></work></metadata></svg>
